<?xml version="1.0" encoding="UTF-8"?>
<svg version="1.1" xmlns="http://www.w3.org/2000/svg" width="173" height="34">
<path d="M0 0 C2.7225 -0.020625 5.445 -0.04125 8.25 -0.0625 C9.10110352 -0.071604 9.95220703 -0.08070801 10.82910156 -0.09008789 C11.5094043 -0.09258545 12.18970703 -0.09508301 12.890625 -0.09765625 C13.92751465 -0.10551147 13.92751465 -0.10551147 14.98535156 -0.11352539 C17 0 17 0 19.13183594 0.56860352 C21.07730404 1.22676124 21.07730404 1.22676124 23 0 C30.02412465 -0.69089751 30.02412465 -0.69089751 33.7421875 1.94140625 C36.8459027 6.14592009 36.57276519 9.23933083 36.3125 14.3125 C36.28994141 15.14845703 36.26738281 15.98441406 36.24414062 16.84570312 C36.1855061 18.89791149 36.09583215 20.94919202 36 23 C33.36 23 30.72 23 28 23 C27.67 18.05 27.34 13.1 27 8 C25.68 8 24.36 8 23 8 C22.67 12.95 22.34 17.9 22 23 C19.36 23 16.72 23 14 23 C13.67 18.05 13.34 13.1 13 8 C11.68 8 10.36 8 9 8 C7.58365167 10.83269666 7.6536995 13.47466438 7.4375 16.625 C7.35371094 17.81351563 7.26992188 19.00203125 7.18359375 20.2265625 C7.12300781 21.14179688 7.06242187 22.05703125 7 23 C4.69 23 2.38 23 0 23 C0 15.41 0 7.82 0 0 Z " fill="#FF4B23" transform="translate(53,10)"/>
<path d="M0 0 C0.72590332 0.00249756 1.45180664 0.00499512 2.19970703 0.00756836 C3.12122559 0.01667236 4.04274414 0.02577637 4.9921875 0.03515625 C7.9209375 0.05578125 10.8496875 0.07640625 13.8671875 0.09765625 C13.8671875 7.68765625 13.8671875 15.27765625 13.8671875 23.09765625 C11.1653125 23.32453125 8.4634375 23.55140625 5.6796875 23.78515625 C4.83768799 23.86467529 3.99568848 23.94419434 3.12817383 24.02612305 C-1.51024119 24.35527243 -4.3922269 24.20891838 -8.1328125 21.09765625 C-11.35520884 15.61958247 -11.5819678 12.08749814 -10.1328125 6.09765625 C-7.15876594 1.58861792 -5.33603378 -0.0375777 0 0 Z M-2.0078125 8.78515625 C-3.42081205 11.08965194 -3.42081205 11.08965194 -2.5703125 13.78515625 C-1.35192912 16.20465959 -1.35192912 16.20465959 0.8046875 17.03515625 C3.18168842 17.30662347 3.18168842 17.30662347 5.8671875 15.09765625 C6.28385417 12.09765625 6.28385417 12.09765625 5.8671875 9.09765625 C5.2071875 8.43765625 4.5471875 7.77765625 3.8671875 7.09765625 C-0.05770882 6.65167976 -0.05770882 6.65167976 -2.0078125 8.78515625 Z " fill="#FF4C23" transform="translate(102.1328125,9.90234375)"/>
<path d="M0 0 C3.24168949 1.62084474 5.19736744 2.94198435 7.375 5.8125 C8.60440405 10.11541417 8.62297139 13.69472662 6.6875 17.75 C4.24550447 21.00599404 2.91585593 22.69471469 -1 24 C-7.1188126 24.50154202 -10.10653554 24.07788705 -15 20 C-17.82792793 15.7581081 -17.78122286 11.98126257 -17 7 C-13.09269538 -0.26264799 -7.58370541 -0.84909585 0 0 Z M-7 7 C-9.34973818 8.89755144 -9.34973818 8.89755144 -9.125 12.125 C-9.08375 13.07375 -9.0425 14.0225 -9 15 C-6.73398135 16.29042763 -6.73398135 16.29042763 -4 17 C-1.67488528 15.73647948 -1.67488528 15.73647948 0 14 C-0.33 12.02 -0.66 10.04 -1 8 C-3.90073181 7.32198966 -3.90073181 7.32198966 -7 7 Z " fill="#FF4B23" transform="translate(154,10)"/>
<path d="M0 0 C3.24168949 1.62084474 5.19736744 2.94198435 7.375 5.8125 C8.60440405 10.11541417 8.62297139 13.69472662 6.6875 17.75 C4.24550447 21.00599404 2.91585593 22.69471469 -1 24 C-6.24262952 24.39567015 -9.54355112 23.83592201 -14 21 C-17.40481916 17.25469892 -17.56022643 14.39018307 -17.4296875 9.48046875 C-16.73257257 5.45621441 -14.96066221 3.74918634 -12 1 C-8.28986322 -0.85506839 -4.04907177 -0.45334699 0 0 Z M-7 7 C-9.34973818 8.89755144 -9.34973818 8.89755144 -9.125 12.125 C-9.08375 13.07375 -9.0425 14.0225 -9 15 C-6.73398135 16.29042763 -6.73398135 16.29042763 -4 17 C-1.67488528 15.73647948 -1.67488528 15.73647948 0 14 C-0.33 12.02 -0.66 10.04 -1 8 C-3.90073181 7.32198966 -3.90073181 7.32198966 -7 7 Z " fill="#FF4B23" transform="translate(42,10)"/>
<path d="M0 0 C9.57 0 19.14 0 29 0 C29 2.31 29 4.62 29 7 C25.7 7 22.4 7 19 7 C19 15.58 19 24.16 19 33 C16.36 33 13.72 33 11 33 C11 24.42 11 15.84 11 7 C7.37 7 3.74 7 0 7 C0 4.69 0 2.38 0 0 Z " fill="#FF4C24" transform="translate(0,0)"/>
<path d="M0 0 C2.64 0 5.28 0 8 0 C8 2.97 8 5.94 8 9 C9.65 9 11.3 9 13 9 C13 11.31 13 13.62 13 16 C11.35 16 9.7 16 8 16 C8 21.28 8 26.56 8 32 C5.36 32 2.72 32 0 32 C0 26.72 0 21.44 0 16 C-1.65 16 -3.3 16 -5 16 C-5 13.69 -5 11.38 -5 9 C-3.35 9 -1.7 9 0 9 C0 6.03 0 3.06 0 0 Z " fill="#FF4B24" transform="translate(123,1)"/>
<path d="M0 0 C2.9375 0.1875 2.9375 0.1875 3.9375 1.1875 C4.125 4.125 4.125 4.125 3.9375 7.1875 C3.2775 7.8475 2.6175 8.5075 1.9375 9.1875 C-1.1875 8.8125 -1.1875 8.8125 -4.0625 8.1875 C-4.6875 5.3125 -4.6875 5.3125 -5.0625 2.1875 C-3.0625 0.1875 -3.0625 0.1875 0 0 Z " fill="#FF4C23" transform="translate(169.0625,24.8125)"/>
</svg>
